HIERARCHY
ROOT Hips
{
 OFFSET 0.000000 0.000000 0.000000
 CHANNELS 6 Xposition Yposition Zposition Yrotation Xrotation Zrotation
 JOINT Chest
 {
  OFFSET 0.000000 10.354800 0.006500
  CHANNELS 3 Yrotation Xrotation Zrotation
  JOINT Chest2
  {
   OFFSET 0.000000 10.435800 -0.013200
   CHANNELS 3 Yrotation Xrotation Zrotation
   JOINT Chest3
   {
    OFFSET 0.000000 10.393700 0.000000
    CHANNELS 3 Yrotation Xrotation Zrotation
    JOINT Chest4
    {
     OFFSET 0.000000 10.383100 0.000000
     CHANNELS 3 Yrotation Xrotation Zrotation
     JOINT Neck
     {
      OFFSET 0.000000 15.694000 0.000000
      CHANNELS 3 Yrotation Xrotation Zrotation
      JOINT Head
      {
       OFFSET 0.000000 9.711000 -0.028000
       CHANNELS 3 Yrotation Xrotation Zrotation
       End Site
       {
        OFFSET 0.000000 18.578700 -0.014800
       }
      }
     }
     JOINT RightCollar
     {
      OFFSET -3.157200 10.367500 0.000000
      CHANNELS 3 Yrotation Xrotation Zrotation
      JOINT RightShoulder
      {
       OFFSET -14.482500 0.000000 0.000000
       CHANNELS 3 Yrotation Xrotation Zrotation
       JOINT RightElbow
       {
        OFFSET 0.000000 -31.707800 0.000000
        CHANNELS 3 Yrotation Xrotation Zrotation
        JOINT RightWrist
        {
         OFFSET 0.000000 -25.659300 0.000000
         CHANNELS 3 Yrotation Xrotation Zrotation
         End Site
         {
          OFFSET 0.000000 -18.994300 0.000000
         }
        }
       }
      }
     }
     JOINT LeftCollar
     {
      OFFSET 3.157200 10.367500 0.000000
      CHANNELS 3 Yrotation Xrotation Zrotation
      JOINT LeftShoulder
      {
       OFFSET 14.482500 0.000000 0.000000
       CHANNELS 3 Yrotation Xrotation Zrotation
       JOINT LeftElbow
       {
        OFFSET 0.000000 -31.707800 0.000000
        CHANNELS 3 Yrotation Xrotation Zrotation
        JOINT LeftWrist
        {
         OFFSET 0.000000 -25.659300 0.000000
         CHANNELS 3 Yrotation Xrotation Zrotation
         End Site
         {
          OFFSET 0.000000 -18.994300 0.000000
         }
        }
       }
      }
     }
    }
   }
  }
 }
 JOINT RightHip
 {
  OFFSET -8.365600 -0.032100 -0.003200
  CHANNELS 3 Yrotation Xrotation Zrotation
  JOINT RightKnee
  {
   OFFSET 0.000000 -43.980000 0.003100
   CHANNELS 3 Yrotation Xrotation Zrotation
   JOINT RightAnkle
   {
    OFFSET 0.000000 -42.882800 0.005200
    CHANNELS 3 Yrotation Xrotation Zrotation
    JOINT RightToe
    {
     OFFSET 0.000000 -4.915500 10.826300
     CHANNELS 3 Yrotation Xrotation Zrotation
     End Site
     {
      OFFSET 0.000000 -1.517500 6.175900
     }
    }
   }
  }
 }
 JOINT LeftHip
 {
  OFFSET 8.365600 -0.032100 -0.003200
  CHANNELS 3 Yrotation Xrotation Zrotation
  JOINT LeftKnee
  {
   OFFSET 0.000000 -43.980000 0.003100
   CHANNELS 3 Yrotation Xrotation Zrotation
   JOINT LeftAnkle
   {
    OFFSET 0.000000 -42.882800 0.005200
    CHANNELS 3 Yrotation Xrotation Zrotation
    JOINT LeftToe
    {
     OFFSET 0.000000 -4.915500 10.826300
     CHANNELS 3 Yrotation Xrotation Zrotation
     End Site
     {
      OFFSET 0.000000 -1.517500 6.175900
     }
    }
   }
  }
 }
}
MOTION
Frames: 13
Frame Time: 0.008333
4.642061 127.342181 47.378057 170.446727 -39.064946 -5.315872 -3.395475 20.282924 0.687110 -0.422216 2.513376 0.153257 -0.708346 4.192798 0.234487 -2.880645 17.308178 0.643699 4.714246 21.323466 -5.504066 6.442204 -2.592447 -7.126287 6.077989 11.197944 -6.966568 -8.467953 -19.746890 -7.377121 -109.355281 -73.415729 114.776134 -16.774379 -18.971410 -38.629845 -4.555831 8.798606 1.947683 -38.986672 -49.040942 16.767664 -87.788651 -38.897114 64.011034 -9.699986 -21.425641 22.876601 5.307939 -43.506350 3.751522 -72.338762 78.770003 -65.290193 4.956058 9.391431 -16.489519 -0.003439 0.047017 -0.001562 -16.773201 -42.779208 3.382676 61.251820 86.002946 52.805335 -6.046643 -18.314914 -1.530177 -0.005347 -0.024654 -0.002427
4.640043 127.340037 47.376982 170.420344 -39.036743 -5.275552 -3.355304 20.138972 0.686547 -0.420771 2.511552 0.150772 -0.694320 4.153163 0.234069 -2.837096 17.240341 0.653065 4.701779 21.304957 -5.437761 6.410988 -2.620740 -7.048160 5.980224 11.194741 -6.868718 -8.467926 -19.016227 -7.560791 -110.146855 -73.416976 116.396258 -16.777501 -18.549796 -38.167727 -4.339962 8.745727 1.958978 -37.859030 -47.984459 15.942932 -88.201596 -40.320076 64.877565 -9.213091 -21.249094 22.530755 5.304086 -43.545085 3.692363 -72.341176 78.845018 -65.272620 4.942509 9.390111 -16.547792 0.006722 0.042838 0.003054 -16.867170 -42.830290 3.425581 62.617089 86.071004 54.129718 -5.982139 -18.789873 -1.439684 -0.015955 -0.030790 -0.007241
4.637276 127.337356 47.375665 170.378835 -39.003957 -5.223439 -3.319341 20.036835 0.675209 -0.404903 2.470034 0.161680 -0.680019 4.115525 0.235463 -2.790332 17.175696 0.670091 4.679062 21.266462 -5.381324 6.370668 -2.672366 -6.978289 5.866700 11.176228 -6.792676 -8.462157 -18.287840 -7.741619 -110.840515 -73.411055 117.925064 -16.778562 -18.121267 -37.651002 -4.141744 8.692425 1.960050 -36.682888 -46.960573 15.087860 -88.685309 -41.718523 65.714543 -8.734978 -21.070052 22.192678 5.290355 -43.590115 3.640007 -72.349063 78.929526 -65.280005 4.922528 9.386328 -16.600894 0.007319 0.040665 0.003325 -16.940311 -42.892814 3.450923 64.153415 86.120210 55.626246 -5.883921 -19.186725 -1.341778 -0.022202 -0.041673 -0.010074
4.647462 127.341398 47.369484 170.296376 -39.024964 -5.214648 -3.210159 19.955780 0.763884 -0.402028 2.467237 0.158670 -0.665183 4.079441 0.239328 -2.738779 17.113544 0.698339 4.641749 21.216135 -5.337628 6.317174 -2.737831 -6.918821 5.742515 11.143337 -6.743683 -8.463975 -17.555038 -7.919246 -111.455379 -73.397985 119.376929 -16.784230 -17.680266 -37.079033 -3.973830 8.641422 1.937412 -35.493652 -45.958709 14.246524 -89.248344 -43.087838 66.563350 -8.252231 -20.868230 21.805514 5.247251 -43.586522 3.703248 -72.393778 78.993274 -65.328521 4.912747 9.382023 -16.648027 0.004859 0.035671 0.002208 -16.942836 -42.881622 3.488876 66.509087 86.167279 58.020292 -5.803234 -19.590019 -1.260044 -0.003823 -0.041187 -0.001735
4.652792 127.342876 47.364799 170.227672 -39.024221 -5.192548 -3.123715 19.855403 0.839359 -0.397687 2.463806 0.155114 -0.649667 4.044224 0.245761 -2.682423 17.052676 0.738069 4.591443 21.163892 -5.306549 6.252322 -2.805415 -6.870252 5.623027 11.112999 -6.722088 -8.489795 -16.825722 -8.086203 -112.010539 -73.384548 120.765930 -16.808046 -17.214923 -36.451692 -3.843378 8.593579 1.884972 -34.343660 -44.960925 13.473203 -89.867002 -44.427801 67.443981 -7.761884 -20.637072 21.350561 5.207952 -43.601256 3.741063 -72.475934 79.047679 -65.427853 4.915058 9.370691 -16.689733 0.005707 0.031539 0.002593 -16.935043 -42.896378 3.509666 68.464300 86.193584 59.991334 -5.732205 -19.896830 -1.147098 0.006722 -0.042471 0.003049
4.654364 127.342756 47.360773 170.165490 -39.009830 -5.158335 -3.055328 19.760600 0.893075 -0.403057 2.490381 0.136006 -0.616235 3.960716 0.278217 -2.621125 16.992076 0.787283 4.530389 21.114820 -5.286352 6.178320 -2.869191 -6.831312 5.512904 11.101083 -6.721136 -8.535123 -16.118247 -8.238266 -112.513391 -73.370065 122.095005 -16.848384 -16.701486 -35.768096 -3.744932 8.549290 1.806092 -33.255029 -43.958446 12.784857 -90.533931 -45.744791 68.369236 -7.282610 -20.381767 20.837881 5.179322 -43.626547 3.760066 -72.580338 79.091243 -65.558007 4.901718 9.355210 -16.719974 0.003608 0.030057 0.001639 -16.880594 -42.944523 3.452660 70.510687 86.181088 62.093997 -5.638536 -20.124272 -1.043706 -0.005642 -0.057402 -0.002560
4.656927 127.342954 47.356434 170.092393 -38.996527 -5.126316 -2.976944 19.667322 0.956931 -0.385169 2.442657 0.152868 -0.608207 3.949279 0.276563 -2.557682 16.928802 0.842165 4.463086 21.071571 -5.274840 6.099746 -2.925800 -6.800495 5.414400 11.100711 -6.723611 -8.574850 -15.429143 -8.384824 -112.966122 -73.341472 123.355673 -16.884251 -16.117854 -35.035545 -3.655466 8.518062 1.712376 -32.198471 -42.955129 12.158792 -91.286701 -47.049194 69.350930 -6.842989 -20.115123 20.309355 5.158650 -43.650547 3.791831 -72.691814 79.127545 -65.698373 4.892322 9.334722 -16.736535 -0.001320 0.027691 -0.000599 -16.808706 -42.974552 3.411900 72.137648 86.180977 63.775584 -5.562254 -20.325625 -0.938984 -0.001830 -0.056812 -0.000831
4.659104 127.343471 47.351215 170.047249 -38.981884 -5.112633 -2.923233 19.575487 1.016655 -0.367462 2.393891 0.171215 -0.600637 3.935155 0.273543 -2.495874 16.860501 0.898077 4.397334 21.034683 -5.268883 6.024435 -2.974294 -6.776336 5.331939 11.091819 -6.709862 -8.583869 -14.735241 -8.532278 -113.377931 -73.296620 124.548341 -16.900770 -15.469228 -34.270254 -3.551469 8.504371 1.617039 -31.129034 -41.946685 11.568381 -92.171455 -48.343772 70.403770 -6.451731 -19.860833 19.814502 5.124196 -43.672098 3.826794 -72.813073 79.158235 -65.852473 4.884042 9.316671 -16.744053 -0.006169 0.019718 -0.002801 -16.773449 -42.999519 3.392095 73.537022 86.193183 65.210926 -5.506774 -20.496757 -0.844696 0.011697 -0.051151 0.005306
4.659720 127.344521 47.344347 169.996767 -38.970380 -5.088541 -2.874078 19.490409 1.059252 -0.357916 2.368329 0.176317 -0.585121 3.895250 0.282300 -2.437733 16.788267 0.950486 4.340080 20.997712 -5.266431 5.959589 -3.021840 -6.758429 5.266993 11.061013 -6.673336 -8.548240 -14.029110 -8.674965 -113.736700 -73.248972 125.663197 -16.899514 -14.792507 -33.488380 -3.423841 8.496016 1.529266 -30.058395 -40.911564 11.020005 -93.183026 -49.619227 71.541002 -6.108049 -19.640717 19.398918 5.130225 -43.688620 3.843529 -72.947700 79.179619 -66.010274 4.892667 9.300175 -16.754087 -0.001225 0.010100 -0.000556 -16.681232 -43.031470 3.304558 74.981673 86.187484 66.740001 -5.450387 -20.623930 -0.824880 0.004477 -0.040889 0.002031
4.661641 127.343850 47.339647 169.923292 -38.940815 -5.061394 -2.811832 19.397560 1.105068 -0.348621 2.343087 0.180597 -0.570028 3.855682 0.289714 -2.381461 16.716156 0.997302 4.292780 20.949432 -5.267071 5.906647 -3.081494 -6.746408 5.212677 10.995926 -6.616099 -8.460909 -13.318212 -8.809327 -113.981424 -73.201751 126.643932 -16.885121 -14.133895 -32.709816 -3.275744 8.482424 1.457934 -29.035542 -39.846353 10.533284 -94.273603 -50.854036 72.745952 -5.802698 -19.465298 19.106583 5.145274 -43.725264 3.876874 -73.071269 79.196383 -66.160223 4.887623 9.281188 -16.753368 -0.003272 0.006049 -0.001486 -16.571704 -43.076911 3.222694 76.395424 86.178116 68.238377 -5.375772 -20.772109 -0.752964 0.000882 -0.035953 0.000400
4.665217 127.338411 47.341325 169.766910 -38.869171 -4.998692 -2.684380 19.291333 1.156313 -0.343346 2.299669 0.190932 -0.555645 3.818811 0.295884 -2.327425 16.648517 1.038268 4.257306 20.881511 -5.269930 5.867230 -3.163043 -6.739675 5.161802 10.888850 -6.539476 -8.324765 -12.611396 -8.940250 -114.026017 -73.144198 127.421381 -16.864204 -13.532003 -31.963176 -3.104931 8.469234 1.415999 -28.061148 -38.784590 10.089172 -95.412889 -52.022882 73.974459 -5.512217 -19.329890 18.953602 5.198159 -43.805248 3.934150 -73.145622 79.210392 -66.271894 4.915028 9.251240 -16.753184 -0.001449 0.013795 -0.000658 -16.430445 -43.168749 3.199083 77.898786 86.189605 69.810380 -5.312552 -20.924029 -0.684557 0.001095 -0.017752 0.000497
4.668881 127.336883 47.337790 169.682596 -38.824292 -4.976708 -2.613067 19.220411 1.198356 -0.347418 2.265649 0.197761 -0.543580 3.785644 0.300925 -2.282484 16.586924 1.072704 4.238845 20.791304 -5.274715 5.847040 -3.269066 -6.739295 5.119951 10.748230 -6.450620 -8.156841 -11.918054 -9.078222 -113.774745 -73.048644 127.933533 -16.849813 -13.010771 -31.280068 -2.901314 8.467465 1.410370 -27.098949 -37.752162 9.639519 -96.602677 -53.104922 75.208305 -5.222920 -19.219303 18.919662 5.209685 -43.852302 3.992712 -73.227397 79.212781 -66.382707 4.894099 9.232396 -16.754548 -0.001730 0.012753 -0.000785 -16.368252 -43.223902 3.205242 79.206873 86.226729 71.140795 -5.287379 -21.042992 -0.620119 0.004279 -0.010862 0.001942
4.674009 127.335347 47.334803 169.596686 -38.775134 -4.961306 -2.574541 19.109922 1.248959 -0.323424 2.288059 0.185892 -0.536698 3.748165 0.309392 -2.247332 16.532150 1.103322 4.234289 20.678564 -5.280743 5.842534 -3.399917 -6.743627 5.086187 10.591116 -6.363565 -7.978222 -11.247032 -9.231479 -113.166249 -72.881087 128.145662 -16.858273 -12.581588 -30.688971 -2.672369 8.480008 1.438113 -26.157479 -36.756845 9.165050 -97.813422 -54.088221 76.440152 -4.941803 -19.106188 18.950609 5.228142 -43.903510 4.052394 -73.254401 79.210164 -66.425029 4.906773 9.230096 -16.770997 0.004094 0.004536 0.001859 -16.312171 -43.282173 3.227435 80.563272 86.271792 72.512758 -5.283337 -21.164008 -0.549733 0.004341 -0.003076 0.001971
